# xmcd
#
# Track frame offsets: 
#        150
#        17427
#        36496
#        58148
#        79318
#        98632
#        117554
#        135184
#        150128
#        162605
#        180795
#        200132
#        221726
#        237338
#        260648
#        282130
#        301242
#        324174
#
# Disc length: 4445 seconds
#
# Revision: 0
# Processed by: cddbd v1.5.2PL0 Copyright (c) Steve Scherf et al.
# Submitted via: ExactAudioCopy v0.95b4
#
DISCID=f2115b12
DTITLE=Cocker, Joe - Greatest Hits
DYEAR=1998
DGENRE=Blues
TTITLE0=Summer in the city
TTITLE1=Could you be loved
TTITLE2=The simple things
TTITLE3=N'Dubliez Jamais
TTITLE4=Have a little faith in me
TTITLE5=What becomes of the Broken-Hearted
TTITLE6=Don't let me be misunderstood
TTITLE7=Delta Lady
TTITLE8=You are so beautiful
TTITLE9=That's all I need to know (Live, Duett with Eros Ramazzotti)
TTITLE10=Let the healing begin
TTITLE11=Tonight
TTITLE12=Night calls
TTITLE13=Don't you love me anymore
TTITLE14=When the night comes
TTITLE15=You can leave your hat on
TTITLE16=Unchain my heart
TTITLE17=With a little help from my friends (Live)
EXTD=
EXTT0=
EXTT1=
EXTT2=
EXTT3=
EXTT4=
EXTT5=
EXTT6=
EXTT7=
EXTT8=
EXTT9=
EXTT10=
EXTT11=
EXTT12=
EXTT13=
EXTT14=
EXTT15=
EXTT16=
EXTT17=
PLAYORDER=
